<svg width="68" height="68" viewBox="0 0 68 68" fill="none" xmlns="http://www.w3.org/2000/svg">
<g clip-path="url(#clip0_10_197)">
<path d="M34.382 68.764C53.3707 68.764 68.764 53.3707 68.764 34.382C68.764 15.3934 53.3707 0 34.382 0C15.3934 0 0 15.3934 0 34.382C0 53.3707 15.3934 68.764 34.382 68.764Z" fill="#1B1464"/>
<path d="M34.382 68.764C53.3707 68.764 68.764 53.3707 68.764 34.382C68.764 15.3934 53.3707 0 34.382 0C15.3934 0 0 15.3934 0 34.382C0 53.3707 15.3934 68.764 34.382 68.764Z" fill="black" fill-opacity="0.2"/>
<path fill-rule="evenodd" clip-rule="evenodd" d="M50.3528 18.0725C46.6539 14.3761 41.7384 12.149 36.5205 11.8054C31.3025 11.4618 26.1374 13.0251 21.9858 16.2046C17.8342 19.384 14.9787 23.9632 13.9505 29.0903C12.9223 34.2175 13.7913 39.5436 16.3959 44.078L13.314 55.2531L24.748 52.2574C27.9109 53.9769 31.4539 54.8775 35.054 54.8771C39.3197 54.8811 43.4908 53.6204 47.0402 51.2543C50.5896 48.8883 53.3579 45.5232 54.9952 41.5842C56.6325 37.6453 57.0654 33.3093 56.2391 29.1244C55.4127 24.9395 53.3643 21.0935 50.3528 18.0725ZM35.0971 51.2404C31.8871 51.2378 28.7366 50.3736 25.9746 48.7379L25.3151 48.3495L18.5286 50.1247L20.3408 43.517L19.9093 42.839C17.7966 39.4715 16.8628 35.4974 17.2549 31.5413C17.6469 27.5853 19.3425 23.8717 22.0752 20.9844C24.8078 18.0971 28.4224 16.1997 32.3509 15.5906C36.2793 14.9815 40.2988 15.6952 43.7775 17.6195C47.2561 19.5437 49.9967 22.5695 51.5683 26.221C53.1399 29.8726 53.4535 33.9429 52.4597 37.7921C51.4659 41.6413 49.2211 45.051 46.0782 47.4854C42.9353 49.9198 39.0725 51.2406 35.0971 51.2404ZM44.9285 37.797C44.3923 37.5257 41.7418 36.2252 41.2302 36.0464C40.7186 35.8677 40.3796 35.7752 39.9974 36.3115C39.6153 36.8477 38.6044 38.0682 38.29 38.4257C37.9757 38.7832 37.6736 38.8325 37.1251 38.5613C35.5434 37.9249 34.0837 37.0198 32.8103 35.8862C31.6337 34.7973 30.6243 33.5407 29.8147 32.157C29.5003 31.6146 29.7777 31.3249 30.0489 31.0537C30.3201 30.7825 30.5852 30.4373 30.8564 30.1106C31.0791 29.8391 31.2599 29.5358 31.3926 29.2107C31.466 29.0627 31.5005 28.8985 31.493 28.7335C31.4854 28.5686 31.4361 28.4082 31.3495 28.2676C31.2139 27.9964 30.1167 25.3459 29.6914 24.2672C29.2661 23.1885 28.81 23.3611 28.4586 23.3426C28.1073 23.3241 27.7868 23.3426 27.4231 23.3426C27.1504 23.3499 26.8821 23.4133 26.635 23.5289C26.3879 23.6445 26.1673 23.8098 25.9869 24.0145C25.3775 24.5926 24.8951 25.2912 24.5704 26.0659C24.2457 26.8405 24.0857 27.6743 24.1008 28.5141C24.1008 31.1646 26.0301 33.7226 26.3013 34.0616C26.5725 34.4007 30.1044 39.8619 35.5101 42.198C36.5172 42.6288 37.5459 43.0073 38.5921 43.3321C39.6925 43.665 40.8554 43.7367 41.9884 43.5417C43.0239 43.3876 45.1751 42.2411 45.6251 40.9837C45.9884 40.1899 46.1126 39.3074 45.9826 38.4442C45.8285 38.2223 45.471 38.0867 44.9285 37.797Z" fill="white"/>
</g>
<defs>
<clipPath id="clip0_10_197">
<rect width="68" height="68" fill="white"/>
</clipPath>
</defs>
</svg>
