<svg width="68" height="68" viewBox="0 0 68 68" fill="none" xmlns="http://www.w3.org/2000/svg">
<path d="M34 68C52.7777 68 68 52.7777 68 34C68 15.2223 52.7777 0 34 0C15.2223 0 0 15.2223 0 34C0 52.7777 15.2223 68 34 68Z" fill="#1B1464"/>
<path d="M34 68C52.7777 68 68 52.7777 68 34C68 15.2223 52.7777 0 34 0C15.2223 0 0 15.2223 0 34C0 52.7777 15.2223 68 34 68Z" fill="black" fill-opacity="0.2"/>
<path d="M19.7295 22.2549L31.3584 34.8975C31.6851 35.2531 32.087 35.5379 32.5374 35.7329C32.9878 35.928 33.4763 36.0289 33.9705 36.0289C34.4647 36.0289 34.9533 35.928 35.4037 35.7329C35.8541 35.5379 36.256 35.2531 36.5827 34.8975L48.0027 22.4725C48.0955 22.3731 48.2062 22.2905 48.3295 22.2288C47.8302 22.0185 47.2908 21.9103 46.7454 21.9111H21.1911C20.6696 21.9113 20.1531 22.0088 19.6705 22.1983L19.7295 22.2549Z" fill="white"/>
<path d="M50.0178 23.5401C49.9681 23.6721 49.8931 23.794 49.7968 23.8996L38.4477 36.2705C37.8914 36.8762 37.2074 37.3612 36.4409 37.6935C35.6745 38.0257 34.8432 38.1975 34.0023 38.1975C33.1614 38.1975 32.3301 38.0257 31.5636 37.6935C30.7972 37.3612 30.1131 36.8762 29.5569 36.2705L18.0048 23.683C17.9823 23.6566 17.9612 23.6292 17.9417 23.6007C17.5725 24.1859 17.3775 24.8571 17.3778 25.5413V42.5816C17.3778 43.0763 17.4793 43.5661 17.6766 44.0231C17.8739 44.4801 18.163 44.8952 18.5275 45.2448C18.892 45.5944 19.3246 45.8716 19.8007 46.0605C20.2768 46.2494 20.787 46.3463 21.3022 46.3458H46.6979C47.213 46.3463 47.7232 46.2494 48.1993 46.0605C48.6754 45.8716 49.1081 45.5944 49.4725 45.2448C49.837 44.8952 50.1262 44.4801 50.3234 44.0231C50.5207 43.5661 50.6222 43.0763 50.6222 42.5816V25.5413C50.6236 24.8325 50.4139 24.1381 50.0178 23.5401Z" fill="white"/>
</svg>
