<svg width="68" height="68" viewBox="0 0 68 68" fill="none" xmlns="http://www.w3.org/2000/svg">
<mask id="mask0_10_210" style="mask-type:luminance" maskUnits="userSpaceOnUse" x="0" y="0" width="68" height="68">
<path d="M34 68C52.7777 68 68 52.7777 68 34C68 15.2223 52.7777 0 34 0C15.2223 0 0 15.2223 0 34C0 52.7777 15.2223 68 34 68Z" fill="white"/>
</mask>
<g mask="url(#mask0_10_210)">
<mask id="mask1_10_210" style="mask-type:luminance" maskUnits="userSpaceOnUse" x="-3" y="-3" width="74" height="74">
<path d="M70.515 -2.52039H-2.51453V70.5092H70.515V-2.52039Z" fill="white"/>
</mask>
<g mask="url(#mask1_10_210)">
<rect x="-2.75037" y="-2.71121" width="73.3776" height="73.1362" fill="#1B1464"/>
<rect x="-2.75037" y="-2.71121" width="73.3776" height="73.1362" fill="black" fill-opacity="0.2"/>
</g>
<path d="M34.3648 20.9489C38.7339 20.9489 39.2532 20.9489 40.9786 21.0476C42.0163 21.0577 43.0445 21.248 44.0172 21.6099C44.724 21.8811 45.3659 22.2979 45.9013 22.8333C46.4366 23.3687 46.8533 24.0107 47.1245 24.7176C47.4783 25.6921 47.6627 26.7199 47.6696 27.7567C47.7468 29.4736 47.764 29.9973 47.764 34.3713C47.764 38.7452 47.764 39.2775 47.6696 40.9944C47.6562 42.0321 47.4661 43.0598 47.1073 44.0335C46.8352 44.7393 46.4181 45.3803 45.8828 45.9148C45.3476 46.4494 44.7062 46.8657 44 47.1369C43.0277 47.5009 41.9995 47.6926 40.9614 47.7035C39.2447 47.7808 38.7168 47.7979 34.3477 47.7979C29.9785 47.7979 29.4592 47.7979 27.7339 47.7035C26.6958 47.6926 25.6676 47.5009 24.6953 47.1369C23.9891 46.8657 23.3477 46.4494 22.8125 45.9148C22.2772 45.3803 21.8601 44.7393 21.588 44.0335C21.241 43.0577 21.0624 42.0301 21.0601 40.9944C20.9828 39.2775 20.9657 38.7495 20.9657 34.3798C20.9657 30.0102 20.9657 29.4908 21.0601 27.7652C21.0724 26.7275 21.2626 25.6996 21.6223 24.7262C21.8935 24.0193 22.3102 23.3773 22.8455 22.8419C23.3809 22.3065 24.0228 21.8897 24.7296 21.6185C25.7023 21.2566 26.7305 21.0663 27.7682 21.0562C29.485 20.9746 30.0129 20.9575 34.382 20.9575M34.382 18.0086C29.9356 18.0086 29.3777 18.03 27.6352 18.1073C26.2691 18.1303 24.9166 18.3843 23.6352 18.8585C22.5496 19.2808 21.5641 19.9249 20.7416 20.7497C19.9191 21.5746 19.2777 22.562 18.8584 23.6488C18.3816 24.9196 18.1247 26.2623 18.0987 27.6193C18.0172 29.3663 18 29.9243 18 34.3713C18 38.8182 18 39.3719 18.0987 41.1189C18.1255 42.4773 18.3823 43.8212 18.8584 45.0937C19.2786 46.1795 19.9204 47.1658 20.7428 47.9898C21.5653 48.8138 22.5503 49.4575 23.6352 49.8797C24.9075 50.3558 26.2513 50.6127 27.6094 50.6395C29.3519 50.7211 29.9099 50.7382 34.3562 50.7382C38.8026 50.7382 39.3605 50.7382 41.103 50.6395C42.467 50.6147 43.8167 50.3577 45.0944 49.8797C46.1809 49.4585 47.1676 48.8153 47.9916 47.9912C48.8155 47.1672 49.4587 46.1803 49.8799 45.0937C50.3559 43.8212 50.6127 42.4773 50.6395 41.1189C50.7211 39.3719 50.7382 38.8139 50.7382 34.3713C50.7382 29.9286 50.7382 29.3663 50.6395 27.6193C50.6135 26.2623 50.3566 24.9196 49.8799 23.6488C49.4596 22.5611 48.8169 21.5732 47.9928 20.7483C47.1688 19.9234 46.1816 19.2798 45.0944 18.8585C43.8216 18.3842 42.4782 18.1274 41.1202 18.0987C39.3777 18.0215 38.8198 18 34.3734 18L34.382 18.0086Z" fill="white"/>
<path d="M34.3733 26.1845C32.754 26.1837 31.1709 26.6632 29.8242 27.5624C28.4775 28.4616 27.4278 29.7401 26.808 31.236C26.1881 32.732 26.0259 34.3782 26.3419 35.9663C26.6579 37.5545 27.438 39.0132 28.5833 40.1579C29.7286 41.3026 31.1877 42.0819 32.776 42.3971C34.3643 42.7123 36.0104 42.5493 37.506 41.9286C39.0017 41.308 40.2796 40.2577 41.1781 38.9105C42.0766 37.5634 42.5553 35.98 42.5537 34.3607C42.5526 32.1919 41.6902 30.1123 40.1562 28.579C38.6222 27.0458 36.5421 26.1845 34.3733 26.1845ZM34.3733 39.6792C33.3222 39.6801 32.2945 39.3692 31.4201 38.7859C30.5457 38.2027 29.8639 37.3732 29.4609 36.4025C29.0579 35.4317 28.9519 34.3633 29.1561 33.3322C29.3603 32.3012 29.8657 31.3539 30.6084 30.6101C31.351 29.8663 32.2975 29.3594 33.3283 29.1535C34.359 28.9477 35.4276 29.0521 36.399 29.4535C37.3703 29.855 38.2009 30.5355 38.7855 31.409C39.3701 32.2824 39.6826 33.3097 39.6834 34.3607C39.6834 35.0581 39.5461 35.7486 39.2792 36.3928C39.0124 37.0371 38.6212 37.6225 38.1281 38.1156C37.635 38.6087 37.0497 38.9998 36.4054 39.2667C35.7611 39.5335 35.0706 39.6709 34.3733 39.6709V39.6792Z" fill="white"/>
<path d="M43.0084 28.0033C44.264 28.0033 45.2818 26.9855 45.2818 25.7298C45.2818 24.4742 44.264 23.4564 43.0084 23.4564C41.7527 23.4564 40.7349 24.4742 40.7349 25.7298C40.7349 26.9855 41.7527 28.0033 43.0084 28.0033Z" fill="white"/>
</g>
</svg>
