<svg width="25" height="25" viewBox="0 0 25 25" fill="none" xmlns="http://www.w3.org/2000/svg">
<circle cx="12.5" cy="12.5" r="12.5" fill="#0000FF"/>
<path d="M12.372 8.497C12.8053 8.497 13.2018 8.562 13.5615 8.692C13.9212 8.81767 14.2288 8.9975 14.4845 9.2315C14.7402 9.4655 14.9395 9.74717 15.0825 10.0765C15.2255 10.4058 15.297 10.772 15.297 11.175C15.297 11.5217 15.245 11.8423 15.141 12.137C15.0413 12.4317 14.9048 12.7133 14.7315 12.982C14.5625 13.2507 14.3632 13.5107 14.1335 13.762C13.9038 14.0133 13.6633 14.269 13.412 14.529L11.293 16.6935C11.501 16.6328 11.7047 16.5873 11.904 16.557C12.1033 16.5223 12.294 16.505 12.476 16.505H14.8875C15.0608 16.505 15.1973 16.5548 15.297 16.6545C15.401 16.7498 15.453 16.8777 15.453 17.038V18H9.00498V17.467C9.00498 17.3587 9.02665 17.246 9.06998 17.129C9.11765 17.012 9.19132 16.9037 9.29098 16.804L12.1445 13.944C12.3828 13.7013 12.5952 13.4695 12.7815 13.2485C12.9722 13.0275 13.1303 12.8087 13.256 12.592C13.386 12.3753 13.4835 12.1565 13.5485 11.9355C13.6178 11.7102 13.6525 11.474 13.6525 11.227C13.6525 11.0017 13.62 10.8045 13.555 10.6355C13.49 10.4622 13.3968 10.317 13.2755 10.2C13.1542 10.083 13.009 9.99633 12.84 9.94C12.6753 9.87933 12.489 9.849 12.281 9.849C11.8953 9.849 11.5768 9.9465 11.3255 10.1415C11.0785 10.3365 10.9052 10.5987 10.8055 10.928C10.7578 11.0927 10.6863 11.2118 10.591 11.2855C10.4957 11.3548 10.3743 11.3895 10.227 11.3895C10.162 11.3895 10.0905 11.383 10.0125 11.37L9.16748 11.2205C9.23248 10.7698 9.35815 10.3755 9.54448 10.0375C9.73082 9.69517 9.96265 9.41133 10.24 9.186C10.5217 8.95633 10.8423 8.78517 11.202 8.6725C11.566 8.5555 11.956 8.497 12.372 8.497Z" fill="white"/>
</svg>
