<svg width="25" height="25" viewBox="0 0 25 25" fill="none" xmlns="http://www.w3.org/2000/svg">
<ellipse cx="12.4622" cy="12.5" rx="12.4622" ry="12.5" fill="#0000FF"/>
<path d="M12.4731 8.497C12.9065 8.497 13.2965 8.55983 13.6431 8.6855C13.9941 8.80683 14.2931 8.978 14.5401 9.199C14.7871 9.41567 14.9756 9.67133 15.1056 9.966C15.24 10.2607 15.3071 10.5792 15.3071 10.9215C15.3071 11.2205 15.2725 11.4848 15.2031 11.7145C15.1381 11.9398 15.0406 12.137 14.9106 12.306C14.785 12.475 14.629 12.618 14.4426 12.735C14.2606 12.852 14.0526 12.9495 13.8186 13.0275C14.382 13.2052 14.8023 13.476 15.0796 13.84C15.357 14.204 15.4956 14.6612 15.4956 15.2115C15.4956 15.6795 15.409 16.0933 15.2356 16.453C15.0623 16.8127 14.8283 17.116 14.5336 17.363C14.239 17.6057 13.8966 17.7898 13.5066 17.9155C13.121 18.0412 12.7115 18.104 12.2781 18.104C11.8058 18.104 11.3941 18.0498 11.0431 17.9415C10.6921 17.8332 10.3866 17.6728 10.1266 17.4605C9.86665 17.2482 9.64565 16.9882 9.46365 16.6805C9.28165 16.3728 9.12565 16.0175 8.99565 15.6145L9.70415 15.322C9.82548 15.27 9.94898 15.244 10.0746 15.244C10.1873 15.244 10.287 15.2678 10.3736 15.3155C10.4646 15.3632 10.534 15.4325 10.5816 15.5235C10.6596 15.6752 10.7441 15.8247 10.8351 15.972C10.9305 16.1193 11.0431 16.2515 11.1731 16.3685C11.3031 16.4812 11.4548 16.5743 11.6281 16.648C11.8058 16.7173 12.016 16.752 12.2586 16.752C12.5316 16.752 12.77 16.7087 12.9736 16.622C13.1773 16.531 13.3463 16.414 13.4806 16.271C13.6193 16.128 13.7211 15.9698 13.7861 15.7965C13.8555 15.6188 13.8901 15.4412 13.8901 15.2635C13.8901 15.0382 13.8663 14.8345 13.8186 14.6525C13.771 14.4662 13.6713 14.308 13.5196 14.178C13.368 14.048 13.1491 13.9462 12.8631 13.8725C12.5815 13.7988 12.2023 13.762 11.7256 13.762V12.618C12.12 12.6137 12.4471 12.5768 12.7071 12.5075C12.9671 12.4382 13.173 12.3428 13.3246 12.2215C13.4806 12.0958 13.589 11.9463 13.6496 11.773C13.7103 11.5997 13.7406 11.409 13.7406 11.201C13.7406 10.7547 13.6193 10.4188 13.3766 10.1935C13.134 9.96383 12.8025 9.849 12.3821 9.849C12.0008 9.849 11.6845 9.95083 11.4331 10.1545C11.1818 10.3538 11.0063 10.6117 10.9066 10.928C10.8546 11.0927 10.7831 11.2118 10.6921 11.2855C10.6011 11.3548 10.482 11.3895 10.3346 11.3895C10.2653 11.3895 10.1916 11.383 10.1136 11.37L9.26865 11.2205C9.33365 10.7698 9.45931 10.3755 9.64565 10.0375C9.83198 9.69517 10.0638 9.41133 10.3411 9.186C10.6228 8.95633 10.9435 8.78517 11.3031 8.6725C11.6671 8.5555 12.0571 8.497 12.4731 8.497Z" fill="white"/>
</svg>
