<svg width="25" height="25" viewBox="0 0 25 25" fill="none" xmlns="http://www.w3.org/2000/svg">
<circle cx="12.5" cy="12.5" r="12.5" fill="#0000FF"/>
<path d="M14.582 14.4575H15.765V15.387C15.765 15.4737 15.7368 15.5495 15.6805 15.6145C15.6242 15.6752 15.5418 15.7055 15.4335 15.7055H14.582V18H13.178V15.7055H9.21298C9.10465 15.7055 9.00932 15.673 8.92698 15.608C8.84465 15.5387 8.79265 15.4542 8.77098 15.3545L8.60848 14.542L13.061 8.5945H14.582V14.4575ZM13.178 11.383C13.178 11.2443 13.1823 11.0948 13.191 10.9345C13.1997 10.7742 13.2148 10.6073 13.2365 10.434L10.318 14.4575H13.178V11.383Z" fill="white"/>
</svg>
