<svg width="25" height="25" viewBox="0 0 25 25" fill="none" xmlns="http://www.w3.org/2000/svg">
<circle cx="12.5" cy="12.5" r="12.5" fill="#0000FF"/>
<path d="M11.098 12.0135C11.306 11.9702 11.5053 11.9398 11.696 11.9225C11.8867 11.9008 12.0708 11.89 12.2485 11.89C12.7425 11.89 13.178 11.9637 13.555 12.111C13.932 12.2583 14.2483 12.462 14.504 12.722C14.7597 12.982 14.9525 13.2875 15.0825 13.6385C15.2125 13.9852 15.2775 14.36 15.2775 14.763C15.2775 15.2613 15.1887 15.7163 15.011 16.128C14.8377 16.5397 14.595 16.8928 14.283 17.1875C13.971 17.4778 13.6005 17.7032 13.1715 17.8635C12.7468 18.0238 12.2832 18.104 11.7805 18.104C11.4858 18.104 11.2063 18.0737 10.942 18.013C10.6777 17.9523 10.4285 17.8722 10.1945 17.7725C9.96482 17.6685 9.75032 17.5515 9.55098 17.4215C9.35598 17.2872 9.18048 17.1463 9.02448 16.999L9.51848 16.3165C9.62248 16.1692 9.75898 16.0955 9.92798 16.0955C10.0363 16.0955 10.1468 16.1302 10.2595 16.1995C10.3722 16.2688 10.5 16.3447 10.643 16.427C10.7903 16.5093 10.9615 16.5852 11.1565 16.6545C11.3558 16.7238 11.5942 16.7585 11.8715 16.7585C12.1662 16.7585 12.4262 16.7108 12.6515 16.6155C12.8768 16.5202 13.0632 16.388 13.2105 16.219C13.3622 16.0457 13.4748 15.842 13.5485 15.608C13.6265 15.3697 13.6655 15.1118 13.6655 14.8345C13.6655 14.3232 13.516 13.9245 13.217 13.6385C12.9223 13.3482 12.4847 13.203 11.904 13.203C11.4577 13.203 11.0005 13.2853 10.5325 13.45L9.53148 13.164L10.3115 8.601H14.9525V9.2835C14.9525 9.51317 14.881 9.6995 14.738 9.8425C14.595 9.9855 14.3523 10.057 14.01 10.057H11.4295L11.098 12.0135Z" fill="white"/>
</svg>
