<svg width="25" height="25" viewBox="0 0 25 25" fill="none" xmlns="http://www.w3.org/2000/svg">
<circle cx="12.5" cy="12.5" r="12.5" fill="#0000FF"/>
<path d="M12.814 12.1305C13.1693 12.1305 13.5138 12.189 13.8475 12.306C14.1855 12.423 14.4823 12.6007 14.738 12.839C14.9937 13.073 15.1995 13.3655 15.3555 13.7165C15.5115 14.0675 15.5895 14.477 15.5895 14.945C15.5895 15.3827 15.5093 15.7943 15.349 16.18C15.1887 16.5613 14.9633 16.895 14.673 17.181C14.3827 17.467 14.0317 17.6923 13.62 17.857C13.2127 18.0217 12.762 18.104 12.268 18.104C11.7653 18.104 11.3147 18.0238 10.916 17.8635C10.5173 17.7032 10.1772 17.48 9.89548 17.194C9.61382 16.9037 9.39715 16.557 9.24548 16.154C9.09815 15.7467 9.02448 15.296 9.02448 14.802C9.02448 14.36 9.11332 13.9072 9.29098 13.4435C9.47298 12.9755 9.75248 12.4902 10.1295 11.9875L12.372 8.978C12.45 8.874 12.5627 8.78517 12.71 8.7115C12.8617 8.63783 13.035 8.601 13.23 8.601H14.66L11.8715 12.0135C11.8108 12.0872 11.7523 12.1565 11.696 12.2215C11.644 12.2865 11.592 12.3537 11.54 12.423C11.722 12.332 11.917 12.2605 12.125 12.2085C12.3373 12.1565 12.567 12.1305 12.814 12.1305ZM10.565 15.049C10.565 15.309 10.5997 15.5473 10.669 15.764C10.7427 15.9763 10.8488 16.1583 10.9875 16.31C11.1305 16.4617 11.306 16.5808 11.514 16.6675C11.722 16.7498 11.9625 16.791 12.2355 16.791C12.4912 16.791 12.7252 16.7477 12.9375 16.661C13.1542 16.5743 13.3383 16.453 13.49 16.297C13.646 16.141 13.7673 15.959 13.854 15.751C13.9407 15.5387 13.984 15.309 13.984 15.062C13.984 14.7933 13.9428 14.5528 13.8605 14.3405C13.7782 14.1238 13.6612 13.9418 13.5095 13.7945C13.3578 13.6428 13.1758 13.528 12.9635 13.45C12.7512 13.372 12.5172 13.333 12.2615 13.333C12.0058 13.333 11.774 13.3763 11.566 13.463C11.358 13.5497 11.1782 13.671 11.0265 13.827C10.8792 13.9787 10.7643 14.1607 10.682 14.373C10.604 14.581 10.565 14.8063 10.565 15.049Z" fill="white"/>
</svg>
